# xmcd
#
# Track frame offsets:
#	150
#	11512
#	18821
#	28006
#	39508
#	51889
#	67579
#	80640
#	92312
#	103878
#	116499
#	129404
#	142780
#	150703
#	163186
#
# Disc length: 2346 seconds
#
# Revision: 0
# Processed by: cddbd v1.5.2PL0 Copyright (c) Steve Scherf et al.
# Submitted via: EZCDAudioConverter 1.1.0.1
#
DISCID=ae09280f
DTITLE=Monroeville - Live In Gatlinburg
DYEAR=2013
DGENRE=Bluegrass
TTITLE0=Rolling In My Sweet Baby's Arms
TTITLE1=Brown County Barn Jamboree
TTITLE2=Down the Road
TTITLE3=Salty Dog Blues
TTITLE4=Rocky Top
TTITLE5=Lady Be Good
TTITLE6=Head Over Heels
TTITLE7=Remperance Reel
TTITLE8=Fox On The Run
TTITLE9=Clinch Mountain Backstep
TTITLE10=Cherokee Shuffle
TTITLE11=Redwood Hill
TTITLE12=Little Liza Jane
TTITLE13=Uncle Penn
TTITLE14=Orange Blossom Special
EXTD=
EXTT0=
EXTT1=
EXTT2=
EXTT3=
EXTT4=
EXTT5=
EXTT6=
EXTT7=
EXTT8=
EXTT9=
EXTT10=
EXTT11=
EXTT12=
EXTT13=
EXTT14=
PLAYORDER=
